<?xml version="1.0" encoding="UTF-8" standalone="no"?>
<!DOCTYPE svg PUBLIC "-//W3C//DTD SVG 1.1//EN" "http://www.w3.org/Graphics/SVG/1.1/DTD/svg11.dtd">
<svg width="100%" height="100%" viewBox="0 0 209 60" version="1.1" xmlns="http://www.w3.org/2000/svg" xmlns:xlink="http://www.w3.org/1999/xlink" xml:space="preserve" xmlns:serif="http://www.serif.com/" style="fill-rule:evenodd;clip-rule:evenodd;stroke-linejoin:round;stroke-miterlimit:2;">
    <g transform="matrix(0.111559,0,0,0.111559,-19.397,-13.0795)">
        <path d="M539.87,493.013C513.611,501.671 486.914,506.1 459.936,509.411C413.149,515.152 367.651,525.413 324.688,545.939C307.97,553.927 289.789,558.919 272.126,564.835C264.368,567.433 256.671,570.024 249.433,573.857C247.848,574.696 246.324,575.742 244.18,575.326C243.921,572.618 246.093,571.89 247.506,570.762C256.117,563.891 265.395,557.997 274.804,552.294C284.344,546.511 293.843,540.661 303.36,534.839C306.225,533.086 309.081,531.919 312.702,532.075C317.301,532.272 321.303,529.69 325.23,527.535C338.072,520.49 350.403,512.539 363.888,506.638C387.18,496.446 411.672,490.002 436.054,483.25C446.488,480.361 455.169,475.095 462.955,467.705C470.707,460.347 479.991,454.914 488.703,448.783C502.647,438.97 505.613,422.577 495.243,408.832C484.03,393.971 468.649,386.057 450.405,383.382C432.595,380.77 414.525,381.163 396.7,378.862C356.14,373.626 316.852,363.934 280.275,344.949C275.252,342.342 270.039,340.102 264.961,337.596C261.996,336.134 259.731,336.495 257.586,339.221C249.905,348.986 239.241,355.62 230.715,364.523C229.118,366.191 227.145,368.551 224.31,366.255C221.463,363.949 222.347,361.472 223.871,358.721C226.52,353.941 231.39,350.734 233.711,344.575C228.141,344.836 223.915,346.338 220.865,350.444C217.591,354.852 214.662,359.533 211.19,363.773C209.088,366.34 206.336,370.289 202.648,367.752C198.562,364.943 202.309,361.563 203.837,358.635C204.823,356.746 205.984,354.947 207.636,352.139C203.62,353.157 200.638,353.894 197.668,354.673C195.841,355.152 194.036,355.29 192.319,354.367C191.091,353.706 190.209,352.696 190.086,351.251C189.951,349.676 190.942,348.685 192.251,348.234C208.055,342.794 221.938,333.249 237.552,327.298C250.794,322.251 263.451,322.165 276.988,326.249C303.114,334.132 329.545,340.998 355.829,348.359C367.766,351.702 380.137,351.994 392.276,353.872C414.727,357.345 435.763,349.68 457.358,346.413C460.936,345.872 464.461,344.981 468.038,344.246C467.363,343.16 466.327,343.83 465.491,343.931C459.125,344.702 453.091,345.037 450.768,336.996C450.345,335.532 448.746,334.403 447.673,333.134C444.641,329.546 441.76,328.705 437.654,332.206C432.461,336.634 426.503,339.799 419.364,336.154C417.476,335.19 416.708,336.608 415.623,337.61C410.218,342.599 405.187,343.166 398.888,339.343C394.063,336.414 389.051,333.717 386.099,328.483C381.997,321.21 382.901,314.585 389.485,309.68C392.47,307.457 390.838,305.258 390.437,303.027C388.559,292.576 388.907,282.76 397.438,274.884C403.42,269.359 410.46,266.961 418.494,267.57C424.238,268.006 429.728,268.067 434.608,264.133C437.262,261.994 440.085,262.7 441.841,265.634C443.403,268.241 445.202,268.956 448.04,267.793C449.804,267.07 451.871,267.067 452.865,269.089C454.072,271.542 456.012,270.959 457.992,270.884C466.569,270.557 469.212,273.728 467.551,282.105C466.66,286.598 464.376,290.503 462.488,294.57C460.971,297.84 461.374,300.439 463.913,303.156C471.582,311.361 480.944,316.836 491.867,321.438C491.614,311.647 490.5,302.548 489.189,293.443C486.209,272.756 474.445,256.602 462.086,240.802C457.893,235.442 452.153,232.273 445.486,230.306C423.741,223.891 401.722,218.725 379.447,214.553C374.854,213.693 371.418,214.696 368.356,218.24C361.932,225.673 354.042,231.72 348.062,239.603C346.774,241.301 344.93,243.168 342.568,241.591C339.74,239.702 339.256,236.796 340.257,233.597C341.318,230.207 344.579,228.214 346.43,224.122C342.653,225.147 340.883,227.329 339.456,229.599C337.335,232.974 335.524,236.552 333.689,240.099C332.455,242.484 331.139,244.792 329.169,246.643C327.047,248.637 324.533,250.73 321.684,248.901C318.408,246.798 320.557,243.873 321.624,241.33C322.69,238.788 324.508,236.51 324.436,232.713C322.079,234.592 320.209,236.127 318.291,237.601C315.878,239.456 313.231,240.849 310.138,241.077C308.337,241.21 306.821,240.516 306.079,238.774C305.315,236.981 305.94,235.393 307.473,234.405C325.434,222.824 340.656,206.988 361.84,200.367C370.757,197.58 379.341,199.462 388.062,199.992C401.176,200.788 414.282,201.783 427.37,202.936C439.64,204.018 451.81,205.933 463.927,208.13C469.37,209.117 472.745,213.046 476.182,217.021C496.221,240.192 510.004,266.75 519.314,295.788C520.379,299.11 521.88,302.292 523.146,305.552C527.239,316.096 533.942,324.168 544.546,328.768C554.61,333.134 563.339,338.984 566.511,350.399C567.089,352.479 567.995,354.575 568.042,356.68C568.414,373.139 571.646,389.49 570.209,405.994C569.519,413.92 568.049,421.779 566.885,429.661C566.72,430.779 566.002,431.887 567.195,432.814C567.982,433.045 568.586,432.721 568.919,432.127C575.401,420.58 585.475,412.19 594.601,402.985C600.38,397.155 605.736,391.041 609.551,383.721C613.095,376.92 618.499,372.464 625.547,369.385C636.324,364.676 644.546,356.854 651.446,347.294C669.59,322.159 688.261,297.337 701.253,269C706.549,257.449 713.275,246.903 720.785,235.237C721.513,240.859 720.037,245.151 719.865,249.378C717.257,250.096 718.224,247.326 716.455,247.17C713.952,249.92 713.451,253.53 713.355,257.142C713.069,267.959 712.622,278.798 714.819,289.501C715.176,291.238 714.992,292.874 714.212,294.357C708.03,306.116 705.238,319.035 701.484,331.612C696.677,347.715 690.221,362.917 679.331,375.989C673.914,382.49 667.214,387.326 660.301,392.014C652.87,397.053 645.347,401.929 639.376,408.897C632.965,416.379 628.823,425.056 625.182,433.991C621.699,442.539 616.649,449.52 609.237,455.217C588.179,471.4 565.105,483.744 539.87,493.013Z" style="fill-rule:nonzero;"/>
        <path d="M607.812,594.744C657.681,566.775 687.03,522.538 700.404,476.965C693.318,488.874 686.938,500.437 679.51,511.388C651.463,552.742 613.896,582.136 567.955,601.314C561.276,604.102 555.235,605.424 547.851,603.729C538.177,601.507 528.096,601.109 518.072,601.202C513.906,601.241 512.029,603.217 511.317,606.994C510.489,611.395 510.333,615.951 508.403,620.103C507.844,621.307 507.286,622.725 505.687,622.674C503.922,622.617 503.859,621.052 503.582,619.757C503.338,618.617 503.09,617.476 502.785,616.351C500.782,608.947 497.016,605.758 489.372,605.377C484.884,605.153 480.376,605.374 475.88,605.262C474.168,605.219 472.183,605.897 470.684,603.846C472.572,600.772 475.987,600.723 478.835,599.996C491.578,596.745 504.449,593.985 517.15,590.581C543.988,583.388 569.337,572.535 593.558,558.937C616.045,546.312 636.937,531.689 654.711,512.782C679.525,486.385 697.104,456.112 705.202,420.614C705.859,417.736 706.068,414.757 705.96,411.607C703.909,416.02 701.575,420.325 699.858,424.864C692.676,443.844 683.143,461.468 670.576,477.452C647.843,506.362 620.608,529.857 588.249,547.537C552.625,567 514.195,577.883 474.825,586.315C451.068,591.404 427.455,597.177 404.768,606.117C401.786,607.292 399.112,607.287 396.16,605.84C387.172,601.433 377.595,598.72 367.356,596.948C369.35,592.846 372.892,591.487 376.042,589.988C392.934,581.951 410.426,575.582 428.761,571.642C455.115,565.981 481.665,561.076 507.758,554.391C553.917,542.563 596.711,523.304 633.498,492.349C654.743,474.472 672.067,453.336 684.337,428.232C691.579,413.414 698.944,398.671 703.53,382.733C704.092,380.779 704.526,377.823 707.232,378.101C710.164,378.402 709.869,381.452 710.234,383.672C710.935,387.926 711.001,392.39 712.376,396.409C716.66,408.921 715.265,421.78 715.189,434.523C715.106,448.625 716.21,462.768 713.393,476.809C709.229,497.566 701.886,517.04 691.372,535.397C679.956,555.331 665.597,573.006 649.839,589.562C643.201,596.536 635.212,602.148 628.765,609.378C627.472,610.827 625.708,611.196 624.361,609.738C616.654,601.392 607.413,601.843 597.656,604.809C596.563,605.141 595.398,605.504 593.643,604.159C598.395,600.995 602.948,597.964 607.812,594.744Z" style="fill-rule:nonzero;"/>
        <path d="M526.257,277.634C519.113,259.296 511.081,241.852 498.68,226.678C498.956,226.119 499.232,225.561 499.508,225.002C505.375,225.002 511.262,224.685 517.104,225.061C534.556,226.186 551.904,228.194 568.727,233.275C592.045,240.318 613.392,251.258 633.274,265.355C645.451,273.99 655.992,284.354 666.813,294.473C669.748,297.219 669.96,299.385 667.394,302.884C659.82,313.213 652.548,323.782 645.58,334.532C638.851,344.914 630.313,352.94 618.761,357.573C610.607,360.845 604.118,366.033 599.738,373.748C596.599,379.276 592.851,384.36 588.337,388.857C587.321,389.869 586.695,391.433 584.495,391.345C583.204,389.004 583.821,386.323 583.785,383.777C583.627,372.624 583.023,361.555 580.202,350.664C576.234,335.348 566.953,324.469 552.466,318.736C542.114,314.64 536.62,307.252 533.386,297.231C531.292,290.742 528.748,284.398 526.257,277.634Z" style="fill-rule:nonzero;"/>
        <path d="M659.15,424.157C675.106,403.266 689.587,381.877 699.763,356.897C702.086,361.038 701.443,364.435 700.773,367.711C697.224,385.049 690.188,401.015 680.778,415.875C668.2,435.736 654.945,455.101 637.623,471.325C612.761,494.613 584.332,512.266 552.947,525.238C519.487,539.069 484.07,545.551 448.759,552.222C424.979,556.715 401.612,562.471 378.97,571.068C369.16,574.793 359.881,579.588 350.595,585.101C348.039,581.792 345.624,578.65 343.191,575.521C340.734,572.363 337.876,569.613 334.607,567.586C334.73,564.578 336.903,563.621 338.63,562.493C351.533,554.064 365.528,547.732 380.035,542.844C408.509,533.251 437.975,528.024 467.686,523.809C501.739,518.978 535.247,511.624 566.545,496.742C594.112,483.634 619.272,466.804 641.001,445.244C647.48,438.815 652.97,431.39 659.15,424.157Z" style="fill-rule:nonzero;"/>
        <path d="M330.459,378.511C353.828,384.771 377.1,389.414 400.797,391.811C417.323,393.483 434.054,393.111 450.381,396.74C455.38,397.851 460.315,399.191 464.772,402.39C463.068,405.154 460.286,404.757 458.061,405.21C435.703,409.753 412.962,411.768 390.457,415.327C366.131,419.174 342.082,424.328 318.722,432.347C309.501,435.513 300.192,438.421 290.303,441.65C289.293,435.668 289.769,430.218 290.009,424.839C290.773,407.671 294.016,390.882 298.308,374.281C300.369,366.31 300.391,366.373 307.857,369.449C315.239,372.489 322.671,375.41 330.459,378.511Z" style="fill-rule:nonzero;"/>
        <path d="M304.068,447.982C332.419,436.171 361.915,430.09 391.572,424.763C411.673,421.153 431.957,418.56 451.836,413.736C456.849,412.519 461.821,411.128 466.852,409.999C475.603,408.036 477.337,408.756 482.02,416.371C483.538,418.84 485.455,421.25 485.326,424.522C465.816,429.336 446.374,433.611 426.805,437.468C389.25,444.87 351.773,452.825 316.847,469.369C309.658,472.774 302.653,476.568 295.228,480.353C292.955,475.566 292.904,470.691 292.228,466.054C290.239,452.407 288.194,454.59 301.424,449.126C302.193,448.809 302.948,448.456 304.068,447.982Z" style="fill-rule:nonzero;"/>
        <path d="M457.392,451.386C455.559,453.342 453.581,454.828 452.466,456.801C448.118,464.497 441.002,467.494 432.885,469.092C404.367,474.703 376.79,483.375 350.364,495.442C337.519,501.308 324.796,507.532 312.895,515.249C311.234,516.327 309.612,517.533 307.108,517.883C304.483,510.979 301.717,504.106 299.291,497.116C298.423,494.613 301.027,493.867 302.611,492.796C316.508,483.398 332.038,477.564 347.511,471.35C372.064,461.491 398.008,456.93 423.286,449.865C439.149,445.431 455.032,441.114 470.587,435.662C472.963,434.83 475.432,433.54 479.225,434.86C473.013,442.348 463.736,444.755 457.392,451.386Z" style="fill-rule:nonzero;"/>
        <path d="M373.495,266.471C389.858,252.649 408.271,244.07 428.751,239.064C443.104,235.557 452.913,245.778 458.099,258.657C452.626,256.649 448.074,253.905 442.903,252.855C437.345,251.727 432.009,251.707 426.796,254.126C425.274,254.832 423.748,255.48 421.998,255.123C411.115,252.9 401.5,256.496 392.734,262.307C380.395,270.485 376.073,282.526 377.821,296.926C378.118,299.371 378.028,301.32 376.295,303.362C369.573,311.285 368.964,322.853 374.454,331.649C375.748,333.721 377.626,335.479 378.229,337.981C374.606,339.163 324.795,329.109 318.54,325.724C333.966,303.315 351.99,283.553 373.495,266.471Z" style="fill-rule:nonzero;"/>
        <path d="M722.999,243.024C726.794,218.159 745.18,207.712 765.08,198.803C769.14,196.985 772.658,198.936 775.405,201.851C778.296,204.917 778.787,208.572 776.834,212.47C774.445,217.236 770.503,220.672 766.498,223.854C753.211,234.409 746.716,248.157 746.276,264.959C746.232,266.625 746.245,268.297 746.094,269.954C745.276,278.912 743.515,280.963 734.853,283.413C732.132,284.183 729.269,284.766 726.809,286.071C722.586,288.311 720.95,286.134 720.018,282.623C718.255,275.983 717.265,269.286 718.489,262.37C719.622,255.967 720.865,249.607 722.999,243.024Z" style="fill-rule:nonzero;"/>
    </g>
    <g transform="matrix(0.204515,0,0,0.204515,29.1442,-113.704)">
        <g transform="matrix(1,0,0,1,4,0)">
            <path d="M224,768.963C214.668,768.999 205.837,769.041 197.005,769.063C193.963,769.071 191.023,768.627 191.109,764.693C191.193,760.831 194.434,760.96 197.009,760.94C211.505,760.832 226.003,760.852 240.5,760.864C247.497,760.869 254.455,760.793 261.372,759.334C266.131,758.33 270.1,762.223 268.974,766.395C268.299,768.893 266.801,770.549 263.902,770.065C250.818,767.882 237.632,769.38 224,768.963Z" style="fill-rule:nonzero;"/>
        </g>
        <g transform="matrix(1,0,0,1,7,0)">
            <path d="M762.283,768.325C757.665,768.621 753.564,768.998 749.63,770.631C746.821,771.796 744.4,770.598 742.537,768.382C740.905,766.44 740.428,764.261 741.704,761.905C743.092,759.344 745.418,758.458 748.048,759.047C763.372,762.483 778.906,760.118 794.325,760.85C800.304,761.134 806.319,760.716 812.262,761.705C814.619,762.097 817.972,761.787 817.923,765.183C817.874,768.51 814.48,768.44 812.147,768.636C808.014,768.982 803.82,769.152 799.689,768.862C787.38,768.001 775.065,768.323 762.283,768.325Z" style="fill-rule:nonzero;"/>
        </g>
        <g transform="matrix(1,0,0,1,-166.842,34.3174)">
            <text x="349.562px" y="681.464px" style="font-family:'Optima-Regular', 'Optima';font-size:96px;">STREET BALLET</text>
        </g>
        <g transform="matrix(1,0,0,1,-123.932,-31.3039)">
            <text x="405.37px" y="804.732px" style="font-family:'Optima-Regular', 'Optima';font-size:36px;">Contemporary Dance Theater</text>
        </g>
    </g>
</svg>
